<svg width="512" height="512" viewBox="0 0 512 512" fill="none" xmlns="http://www.w3.org/2000/svg">
  <rect width="512" height="512" rx="112" fill="#FFFFFF"/>
  <circle cx="392" cy="112" r="42" fill="#FDE68A"/>
  <circle cx="108" cy="396" r="34" fill="#FFB7C5"/>
  <path d="M116 176C116 127.399 155.399 88 204 88H308C356.601 88 396 127.399 396 176V252C396 300.601 356.601 340 308 340H268L218 396C209.439 405.588 193.6 399.532 193.6 386.674V340H204C155.399 340 116 300.601 116 252V176Z" fill="#78C8FF"/>
  <path d="M140 176C140 140.654 168.654 112 204 112H308C343.346 112 372 140.654 372 176V250C372 285.346 343.346 314 308 314H258L220 356.5V314H204C168.654 314 140 285.346 140 250V176Z" fill="#DDF3FF"/>
  <text x="176" y="252" font-family="Arial Rounded MT Bold, Arial, sans-serif" font-size="116" font-weight="900" fill="#1687D9">ㅎ</text>
  <text x="271" y="252" font-family="Arial Rounded MT Bold, Arial, sans-serif" font-size="108" font-weight="900" fill="#1F6FBF">Å</text>
  <circle cx="360" cy="326" r="18" fill="#31C48D"/>
  <circle cx="158" cy="120" r="14" fill="#8EDBFF"/>
</svg>
